# xmcd
#
# Track frame offsets:
#	150
#	17624
#	34589
#	50439
#	65775
#	78869
#	93427
#	108730
#	127788
#	145272
#	162186
#	177593
#	192614
#	205833
#	218976
#	237202
#	252636
#	269830
#	287246
#	301016
#	317363
#
# Disc length: 4384 seconds
#
# Revision: 0
# Processed by: cddbd v1.5.2PL0 Copyright (c) Steve Scherf et al.
# Submitted via: EZCDAudioConverter 3.1.0.1
#
DISCID=37111e15
DTITLE=Nu Urban Traxx Volume 225 US
DYEAR=2016
DGENRE=blues
TTITLE0=Beyonce - Sorry
TTITLE1=Fetty Wap - Wake Up
TTITLE2=Alicia Keys - In Common
TTITLE3=Trinidad James ft. Mystikal and Lil Dicky - Just A Lil Thick ($he Juic
TTITLE3=y)
TTITLE4=Jeremih - Pass Dat
TTITLE5=Janet Jackson - Dammn Baby [LP Edit Bass Intro Mix]
TTITLE6=K Camp ft. 2 Chainz - 5 Minutes
TTITLE7=G-Eazy ft. Chris Brown and Tory Lanez - Drifting
TTITLE8=Kevin Gates - Really Really
TTITLE9=2 Chainz ft. Lil Wayne - MFN Right [Remix]
TTITLE10=TWENTY88 - On The Way
TTITLE11=Kent Jones - Don't Mind
TTITLE12=Drake ft. Wizkid and Kyla - One Dance
TTITLE13=Future - Wicked
TTITLE14=Troy Ave - Good Girl Gone Bad
TTITLE15=Bernard Flowers - This Feeling
TTITLE16=Rae Sremmurd - Look Alive
TTITLE17=Maxwell - Lake By The Ocean
TTITLE18=Dae Dae - Wat U Mean
TTITLE19=B Smyth ft. Rick Ross - Gold Wrappers
TTITLE20=Madeintyo - Uber Everywhere
EXTD=
EXTT0=
EXTT1=
EXTT2=
EXTT3=
EXTT4=
EXTT5=
EXTT6=
EXTT7=
EXTT8=
EXTT9=
EXTT10=
EXTT11=
EXTT12=
EXTT13=
EXTT14=
EXTT15=
EXTT16=
EXTT17=
EXTT18=
EXTT19=
EXTT20=
PLAYORDER=
